ffmpeg started on 2025-05-05 at 19:53:54
Report written to "D:\Convert\FFMetrics\reports\psnr_report-6.txt"
Log level: 32
Command line:
ffmpeg -hide_banner -nostdin -i "G:\\\xc0\xed\xe8\xec\xe5\\\xce\xed\xe3\xee\xe8\xed\xe3\xe8\\!_35_\xcb\xe5\xf2\xee_2024\\JamClub\\\xdf \xef\xe0\xf0\xe8\xf0\xee\xe2\xe0\xeb \xe2\xf1\xb8 \xe2\xf0\xe5\xec\xff, \xf7\xf2\xee\xe1\xfb \xf1\xf2\xe0\xf2\xfc \xf1\xe8\xeb\xfc\xed\xe5\xe9\xf8\xe8\xec \xe0\xe2\xe0\xed\xf2\xfe\xf0\xe8\xf1\xf2\xee\xec\\JamClub_I_Parry_Everything_10_1080p_HEVC.mkv" -i "G:\\\xc0\xed\xe8\xec\xe5\\\xce\xed\xe3\xee\xe8\xed\xe3\xe8\\!_35_\xcb\xe5\xf2\xee_2024\\JamClub\\\xdf \xef\xe0\xf0\xe8\xf0\xee\xe2\xe0\xeb \xe2\xf1\xb8 \xe2\xf0\xe5\xec\xff, \xf7\xf2\xee\xe1\xfb \xf1\xf2\xe0\xf2\xfc \xf1\xe8\xeb\xfc\xed\xe5\xe9\xf8\xe8\xec \xe0\xe2\xe0\xed\xf2\xfe\xf0\xe8\xf1\xf2\xee\xec\\JamClub_I_Parry_Everything_10_1080p.mp4" -lavfi "[0:v]settb=AVTB,setpts=PTS-STARTPTS,format=pix_fmts=yuv420p10,fps=24000/1001,scale=1920:1080:flags=bicubic[main];[1:v]settb=AVTB,setpts=PTS-STARTPTS,format=pix_fmts=yuv420p,fps=24000/1001,scale=1920:1080:flags=bicubic[ref];[main][ref]psnr=eof_action=endall:stats_file='D\\:/Convert/FFMetrics/logs/psnr_logfile-6.txt'" -f null -
Input #0, matroska,webm, from 'G:\Аниме\Онгоинги\!_35_Лето_2024\JamClub\Я парировал всё время, чтобы стать сильнейшим авантюристом\JamClub_I_Parry_Everything_10_1080p_HEVC.mkv':
  Metadata:
    COMPATIBLE_BRANDS: isomiso2avc1mp41
    MAJOR_BRAND     : isom
    MINOR_VERSION   : 512
    ENCODER         : Lavf61.7.100
  Duration: 00:24:04.69, start: -0.001000, bitrate: 1209 kb/s
  Stream #0:0: Video: hevc (Main 10), yuv420p10le(tv, bt709, progressive), 1920x1080 [SAR 1:1 DAR 16:9], 23.98 fps, 23.98 tbr, 1k tbn (default)
      Metadata:
        HANDLER_NAME    : VideoHandler
        VENDOR_ID       : [0][0][0][0]
        ENCODER         : Lavc61.19.100 libx265
        BPS             : 1010964
        DURATION        : 00:24:04.609708333
        NUMBER_OF_FRAMES: 34636
        NUMBER_OF_BYTES : 182556121
        _STATISTICS_WRITING_APP: mkvpropedit v66.0.0 ('Josie') 64-bit
        _STATISTICS_WRITING_DATE_UTC: 2025-05-05 11:40:51
        _STATISTICS_TAGS: BPS DURATION NUMBER_OF_FRAMES NUMBER_OF_BYTES
  Stream #0:1(eng): Audio: aac (LC), 48000 Hz, stereo, fltp (default)
      Metadata:
        HANDLER_NAME    : SoundHandler
        VENDOR_ID       : [0][0][0][0]
        ENCODER         : Lavc61.19.100 aac
        BPS             : 194483
        DURATION        : 00:24:04.653000000
        NUMBER_OF_FRAMES: 67719
        NUMBER_OF_BYTES : 35120070
        _STATISTICS_WRITING_APP: mkvpropedit v66.0.0 ('Josie') 64-bit
        _STATISTICS_WRITING_DATE_UTC: 2025-05-05 11:40:51
        _STATISTICS_TAGS: BPS DURATION NUMBER_OF_FRAMES NUMBER_OF_BYTES
Input #1, mov,mp4,m4a,3gp,3g2,mj2, from 'G:\Аниме\Онгоинги\!_35_Лето_2024\JamClub\Я парировал всё время, чтобы стать сильнейшим авантюристом\JamClub_I_Parry_Everything_10_1080p.mp4':
  Metadata:
    major_brand     : isom
    minor_version   : 512
    compatible_brands: isomiso2avc1mp41
    encoder         : Lavf60.16.100
  Duration: 00:24:04.67, start: 0.000000, bitrate: 4045 kb/s
  Stream #1:0[0x1](und): Video: h264 (High) (avc1 / 0x31637661), yuv420p(progressive), 1920x1080 [SAR 1:1 DAR 16:9], 3847 kb/s, 23.98 fps, 23.98 tbr, 90k tbn (default)
      Metadata:
        handler_name    : VideoHandler
        vendor_id       : [0][0][0][0]
  Stream #1:1[0x2](eng): Audio: aac (LC) (mp4a / 0x6134706D), 48000 Hz, stereo, fltp, 191 kb/s (default)
      Metadata:
        handler_name    : SoundHandler
        vendor_id       : [0][0][0][0]
Stream mapping:
  Stream #0:0 (hevc) -> settb:default
  Stream #1:0 (h264) -> settb:default
  psnr:default -> Stream #0:0 (wrapped_avframe)
  Stream #0:1 -> #0:1 (aac (native) -> pcm_s16le (native))
Output #0, null, to 'pipe:':
  Metadata:
    COMPATIBLE_BRANDS: isomiso2avc1mp41
    MAJOR_BRAND     : isom
    MINOR_VERSION   : 512
    encoder         : Lavf61.7.100
  Stream #0:0: Video: wrapped_avframe, yuv420p10le(tv, bt709, progressive), 1920x1080 [SAR 1:1 DAR 16:9], q=2-31, 200 kb/s, 23.98 fps, 23.98 tbn
      Metadata:
        encoder         : Lavc61.19.100 wrapped_avframe
  Stream #0:1(eng): Audio: pcm_s16le, 48000 Hz, stereo, s16, 1536 kb/s (default)
      Metadata:
        HANDLER_NAME    : SoundHandler
        VENDOR_ID       : [0][0][0][0]
        _STATISTICS_TAGS: BPS DURATION NUMBER_OF_FRAMES NUMBER_OF_BYTES
        BPS             : 194483
        DURATION        : 00:24:04.653000000
        NUMBER_OF_FRAMES: 67719
        NUMBER_OF_BYTES : 35120070
        _STATISTICS_WRITING_APP: mkvpropedit v66.0.0 ('Josie') 64-bit
        _STATISTICS_WRITING_DATE_UTC: 2025-05-05 11:40:51
        encoder         : Lavc61.19.100 pcm_s16le
frame=  112 fps=0.0 q=-0.0 size=N/A time=00:00:04.67 bitrate=N/A speed=8.92x    frame=  268 fps=260 q=-0.0 size=N/A time=00:00:11.17 bitrate=N/A speed=10.8x    frame=  473 fps=303 q=-0.0 size=N/A time=00:00:19.72 bitrate=N/A speed=12.6x    frame=  681 fps=329 q=-0.0 size=N/A time=00:00:28.40 bitrate=N/A speed=13.7x    frame=  890 fps=344 q=-0.0 size=N/A time=00:00:37.12 bitrate=N/A speed=14.3x    frame= 1096 fps=354 q=-0.0 size=N/A time=00:00:45.71 bitrate=N/A speed=14.7x    frame= 1314 fps=363 q=-0.0 size=N/A time=00:00:54.80 bitrate=N/A speed=15.1x    frame= 1555 fps=377 q=-0.0 size=N/A time=00:01:04.85 bitrate=N/A speed=15.7x    frame= 1796 fps=386 q=-0.0 size=N/A time=00:01:14.90 bitrate=N/A speed=16.1x    frame= 2022 fps=392 q=-0.0 size=N/A time=00:01:24.33 bitrate=N/A speed=16.3x    frame= 2244 fps=395 q=-0.0 size=N/A time=00:01:33.59 bitrate=N/A speed=16.5x    frame= 2457 fps=397 q=-0.0 size=N/A time=00:01:42.47 bitrate=N/A speed=16.6x    frame= 2617 fps=390 q=-0.0 size=N/A time=00:01:49.15 bitrate=N/A speed=16.3x    frame= 2817 fps=390 q=-0.0 size=N/A time=00:01:57.49 bitrate=N/A speed=16.2x    frame= 3024 fps=391 q=-0.0 size=N/A time=00:02:06.12 bitrate=N/A speed=16.3x    frame= 3222 fps=390 q=-0.0 size=N/A time=00:02:14.38 bitrate=N/A speed=16.3x    frame= 3349 fps=382 q=-0.0 size=N/A time=00:02:19.68 bitrate=N/A speed=15.9x    frame= 3527 fps=380 q=-0.0 size=N/A time=00:02:27.10 bitrate=N/A speed=15.8x    frame= 3722 fps=380 q=-0.0 size=N/A time=00:02:35.23 bitrate=N/A speed=15.8x    frame= 3945 fps=382 q=-0.0 size=N/A time=00:02:44.53 bitrate=N/A speed=15.9x    frame= 4159 fps=384 q=-0.0 size=N/A time=00:02:53.46 bitrate=N/A speed=  16x    frame= 4402 fps=388 q=-0.0 size=N/A time=00:03:03.60 bitrate=N/A speed=16.2x    frame= 4611 fps=389 q=-0.0 size=N/A time=00:03:12.31 bitrate=N/A speed=16.2x    frame= 4818 fps=389 q=-0.0 size=N/A time=00:03:20.95 bitrate=N/A speed=16.2x    frame= 5047 fps=391 q=-0.0 size=N/A time=00:03:30.50 bitrate=N/A speed=16.3x    frame= 5300 fps=395 q=-0.0 size=N/A time=00:03:41.05 bitrate=N/A speed=16.5x    frame= 5519 fps=396 q=-0.0 size=N/A time=00:03:50.18 bitrate=N/A speed=16.5x    frame= 5755 fps=398 q=-0.0 size=N/A time=00:04:00.03 bitrate=N/A speed=16.6x    frame= 6007 fps=402 q=-0.0 size=N/A time=00:04:10.54 bitrate=N/A speed=16.7x    frame= 6237 fps=403 q=-0.0 size=N/A time=00:04:20.13 bitrate=N/A speed=16.8x    frame= 6435 fps=402 q=-0.0 size=N/A time=00:04:28.39 bitrate=N/A speed=16.8x    frame= 6683 fps=405 q=-0.0 size=N/A time=00:04:38.73 bitrate=N/A speed=16.9x    frame= 6931 fps=407 q=-0.0 size=N/A time=00:04:49.08 bitrate=N/A speed=  17x    frame= 7112 fps=405 q=-0.0 size=N/A time=00:04:56.62 bitrate=N/A speed=16.9x    frame= 7372 fps=408 q=-0.0 size=N/A time=00:05:07.47 bitrate=N/A speed=  17x    frame= 7624 fps=410 q=-0.0 size=N/A time=00:05:17.98 bitrate=N/A speed=17.1x    frame= 7903 fps=414 q=-0.0 size=N/A time=00:05:29.62 bitrate=N/A speed=17.3x    frame= 8157 fps=416 q=-0.0 size=N/A time=00:05:40.21 bitrate=N/A speed=17.3x    frame= 8382 fps=416 q=-0.0 size=N/A time=00:05:49.59 bitrate=N/A speed=17.4x    frame= 8627 fps=418 q=-0.0 size=N/A time=00:05:59.81 bitrate=N/A speed=17.4x    frame= 8856 fps=418 q=-0.0 size=N/A time=00:06:09.36 bitrate=N/A speed=17.5x    frame= 9110 fps=420 q=-0.0 size=N/A time=00:06:19.96 bitrate=N/A speed=17.5x    frame= 9340 fps=421 q=-0.0 size=N/A time=00:06:29.55 bitrate=N/A speed=17.6x    frame= 9566 fps=421 q=-0.0 size=N/A time=00:06:38.98 bitrate=N/A speed=17.6x    frame= 9834 fps=424 q=-0.0 size=N/A time=00:06:50.15 bitrate=N/A speed=17.7x    frame=10068 fps=424 q=-0.0 size=N/A time=00:06:59.91 bitrate=N/A speed=17.7x    frame=10328 fps=426 q=-0.0 size=N/A time=00:07:10.76 bitrate=N/A speed=17.8x    frame=10585 fps=427 q=-0.0 size=N/A time=00:07:21.48 bitrate=N/A speed=17.8x    frame=10774 fps=426 q=-0.0 size=N/A time=00:07:29.36 bitrate=N/A speed=17.8x    frame=10985 fps=426 q=-0.0 size=N/A time=00:07:38.16 bitrate=N/A speed=17.8x    frame=11235 fps=427 q=-0.0 size=N/A time=00:07:48.59 bitrate=N/A speed=17.8x    frame=11508 fps=429 q=-0.0 size=N/A time=00:07:59.97 bitrate=N/A speed=17.9x    frame=11786 fps=431 q=-0.0 size=N/A time=00:08:11.57 bitrate=N/A speed=  18x    frame=12040 fps=432 q=-0.0 size=N/A time=00:08:22.16 bitrate=N/A speed=  18x    frame=12287 fps=433 q=-0.0 size=N/A time=00:08:32.47 bitrate=N/A speed=18.1x    frame=12518 fps=433 q=-0.0 size=N/A time=00:08:42.10 bitrate=N/A speed=18.1x    frame=12747 fps=433 q=-0.0 size=N/A time=00:08:51.65 bitrate=N/A speed=18.1x    frame=12986 fps=434 q=-0.0 size=N/A time=00:09:01.62 bitrate=N/A speed=18.1x    frame=13202 fps=433 q=-0.0 size=N/A time=00:09:10.63 bitrate=N/A speed=18.1x    frame=13442 fps=434 q=-0.0 size=N/A time=00:09:20.64 bitrate=N/A speed=18.1x    frame=13722 fps=436 q=-0.0 size=N/A time=00:09:32.32 bitrate=N/A speed=18.2x    frame=13954 fps=436 q=-0.0 size=N/A time=00:09:41.99 bitrate=N/A speed=18.2x    frame=14162 fps=435 q=-0.0 size=N/A time=00:09:50.67 bitrate=N/A speed=18.2x    frame=14412 fps=436 q=-0.0 size=N/A time=00:10:01.10 bitrate=N/A speed=18.2x    frame=14661 fps=437 q=-0.0 size=N/A time=00:10:11.48 bitrate=N/A speed=18.2x    frame=14942 fps=439 q=-0.0 size=N/A time=00:10:23.20 bitrate=N/A speed=18.3x    frame=15216 fps=440 q=-0.0 size=N/A time=00:10:34.63 bitrate=N/A speed=18.4x    frame=15494 fps=441 q=-0.0 size=N/A time=00:10:46.22 bitrate=N/A speed=18.4x    frame=15749 fps=442 q=-0.0 size=N/A time=00:10:56.86 bitrate=N/A speed=18.4x    frame=16018 fps=443 q=-0.0 size=N/A time=00:11:08.08 bitrate=N/A speed=18.5x    frame=16249 fps=443 q=-0.0 size=N/A time=00:11:17.71 bitrate=N/A speed=18.5x    frame=16527 fps=445 q=-0.0 size=N/A time=00:11:29.31 bitrate=N/A speed=18.6x    frame=16802 fps=446 q=-0.0 size=N/A time=00:11:40.78 bitrate=N/A speed=18.6x    frame=17045 fps=446 q=-0.0 size=N/A time=00:11:50.91 bitrate=N/A speed=18.6x    frame=17278 fps=446 q=-0.0 size=N/A time=00:12:00.63 bitrate=N/A speed=18.6x    frame=17554 fps=447 q=-0.0 size=N/A time=00:12:12.14 bitrate=N/A speed=18.7x    frame=17782 fps=447 q=-0.0 size=N/A time=00:12:21.65 bitrate=N/A speed=18.7x    frame=18059 fps=449 q=-0.0 size=N/A time=00:12:33.21 bitrate=N/A speed=18.7x    frame=18335 fps=450 q=-0.0 size=N/A time=00:12:44.72 bitrate=N/A speed=18.8x    frame=18617 fps=451 q=-0.0 size=N/A time=00:12:56.48 bitrate=N/A speed=18.8x    frame=18870 fps=451 q=-0.0 size=N/A time=00:13:07.03 bitrate=N/A speed=18.8x    frame=19147 fps=452 q=-0.0 size=N/A time=00:13:18.58 bitrate=N/A speed=18.9x    frame=19409 fps=453 q=-0.0 size=N/A time=00:13:29.51 bitrate=N/A speed=18.9x    frame=19678 fps=454 q=-0.0 size=N/A time=00:13:40.73 bitrate=N/A speed=18.9x    frame=19960 fps=455 q=-0.0 size=N/A time=00:13:52.49 bitrate=N/A speed=  19x    frame=20205 fps=455 q=-0.0 size=N/A time=00:14:02.71 bitrate=N/A speed=  19x    frame=20485 fps=456 q=-0.0 size=N/A time=00:14:14.39 bitrate=N/A speed=  19x    frame=20754 fps=457 q=-0.0 size=N/A time=00:14:25.61 bitrate=N/A speed=19.1x    frame=21005 fps=457 q=-0.0 size=N/A time=00:14:36.08 bitrate=N/A speed=19.1x    frame=21267 fps=458 q=-0.0 size=N/A time=00:14:47.01 bitrate=N/A speed=19.1x    frame=21530 fps=458 q=-0.0 size=N/A time=00:14:57.98 bitrate=N/A speed=19.1x    frame=21788 fps=459 q=-0.0 size=N/A time=00:15:08.74 bitrate=N/A speed=19.1x    frame=22031 fps=459 q=-0.0 size=N/A time=00:15:18.87 bitrate=N/A speed=19.1x    frame=22293 fps=460 q=-0.0 size=N/A time=00:15:29.80 bitrate=N/A speed=19.2x    frame=22580 fps=461 q=-0.0 size=N/A time=00:15:41.77 bitrate=N/A speed=19.2x    frame=22830 fps=461 q=-0.0 size=N/A time=00:15:52.20 bitrate=N/A speed=19.2x    frame=23085 fps=461 q=-0.0 size=N/A time=00:16:02.83 bitrate=N/A speed=19.2x    frame=23365 fps=462 q=-0.0 size=N/A time=00:16:14.51 bitrate=N/A speed=19.3x    frame=23611 fps=462 q=-0.0 size=N/A time=00:16:24.77 bitrate=N/A speed=19.3x    frame=23881 fps=463 q=-0.0 size=N/A time=00:16:36.03 bitrate=N/A speed=19.3x    frame=24140 fps=463 q=-0.0 size=N/A time=00:16:46.83 bitrate=N/A speed=19.3x    frame=24395 fps=463 q=-0.0 size=N/A time=00:16:57.47 bitrate=N/A speed=19.3x    frame=24648 fps=464 q=-0.0 size=N/A time=00:17:08.02 bitrate=N/A speed=19.3x    frame=24909 fps=464 q=-0.0 size=N/A time=00:17:18.91 bitrate=N/A speed=19.4x    frame=25141 fps=464 q=-0.0 size=N/A time=00:17:28.58 bitrate=N/A speed=19.3x    frame=25359 fps=464 q=-0.0 size=N/A time=00:17:37.68 bitrate=N/A speed=19.3x    frame=25634 fps=464 q=-0.0 size=N/A time=00:17:49.15 bitrate=N/A speed=19.4x    frame=25893 fps=464 q=-0.0 size=N/A time=00:17:59.95 bitrate=N/A speed=19.4x    frame=26116 fps=464 q=-0.0 size=N/A time=00:18:09.25 bitrate=N/A speed=19.4x    frame=26342 fps=464 q=-0.0 size=N/A time=00:18:18.68 bitrate=N/A speed=19.3x    frame=26611 fps=464 q=-0.0 size=N/A time=00:18:29.90 bitrate=N/A speed=19.4x    frame=26884 fps=465 q=-0.0 size=N/A time=00:18:41.28 bitrate=N/A speed=19.4x    frame=27159 fps=466 q=-0.0 size=N/A time=00:18:52.75 bitrate=N/A speed=19.4x    frame=27400 fps=466 q=-0.0 size=N/A time=00:19:02.80 bitrate=N/A speed=19.4x    frame=27620 fps=465 q=-0.0 size=N/A time=00:19:11.98 bitrate=N/A speed=19.4x    frame=27851 fps=465 q=-0.0 size=N/A time=00:19:21.61 bitrate=N/A speed=19.4x    frame=28110 fps=465 q=-0.0 size=N/A time=00:19:32.42 bitrate=N/A speed=19.4x    frame=28344 fps=465 q=-0.0 size=N/A time=00:19:42.18 bitrate=N/A speed=19.4x    frame=28583 fps=465 q=-0.0 size=N/A time=00:19:52.14 bitrate=N/A speed=19.4x    frame=28841 fps=466 q=-0.0 size=N/A time=00:20:02.91 bitrate=N/A speed=19.4x    frame=29105 fps=466 q=-0.0 size=N/A time=00:20:13.92 bitrate=N/A speed=19.4x    frame=29354 fps=466 q=-0.0 size=N/A time=00:20:24.30 bitrate=N/A speed=19.4x    frame=29589 fps=466 q=-0.0 size=N/A time=00:20:34.10 bitrate=N/A speed=19.4x    frame=29825 fps=466 q=-0.0 size=N/A time=00:20:43.95 bitrate=N/A speed=19.4x    frame=30056 fps=466 q=-0.0 size=N/A time=00:20:53.58 bitrate=N/A speed=19.4x    frame=30312 fps=466 q=-0.0 size=N/A time=00:21:04.26 bitrate=N/A speed=19.4x    frame=30530 fps=466 q=-0.0 size=N/A time=00:21:13.35 bitrate=N/A speed=19.4x    frame=30758 fps=466 q=-0.0 size=N/A time=00:21:22.86 bitrate=N/A speed=19.4x    frame=31001 fps=466 q=-0.0 size=N/A time=00:21:33.00 bitrate=N/A speed=19.4x    frame=31230 fps=465 q=-0.0 size=N/A time=00:21:42.55 bitrate=N/A speed=19.4x    frame=31465 fps=465 q=-0.0 size=N/A time=00:21:52.35 bitrate=N/A speed=19.4x    frame=31725 fps=466 q=-0.0 size=N/A time=00:22:03.19 bitrate=N/A speed=19.4x    frame=31992 fps=466 q=-0.0 size=N/A time=00:22:14.33 bitrate=N/A speed=19.4x    frame=32240 fps=466 q=-0.0 size=N/A time=00:22:24.71 bitrate=N/A speed=19.4x    frame=32519 fps=467 q=-0.0 size=N/A time=00:22:36.31 bitrate=N/A speed=19.5x    frame=32764 fps=467 q=-0.0 size=N/A time=00:22:46.53 bitrate=N/A speed=19.5x    frame=32930 fps=466 q=-0.0 size=N/A time=00:22:53.45 bitrate=N/A speed=19.4x    frame=33114 fps=465 q=-0.0 size=N/A time=00:23:01.12 bitrate=N/A speed=19.4x    frame=33346 fps=465 q=-0.0 size=N/A time=00:23:10.80 bitrate=N/A speed=19.4x    frame=33548 fps=464 q=-0.0 size=N/A time=00:23:19.23 bitrate=N/A speed=19.4x    frame=33739 fps=464 q=-0.0 size=N/A time=00:23:27.19 bitrate=N/A speed=19.3x    frame=33881 fps=462 q=-0.0 size=N/A time=00:23:33.12 bitrate=N/A speed=19.3x    frame=34078 fps=462 q=-0.0 size=N/A time=00:23:41.33 bitrate=N/A speed=19.3x    frame=34275 fps=461 q=-0.0 size=N/A time=00:23:49.55 bitrate=N/A speed=19.2x    frame=34477 fps=461 q=-0.0 size=N/A time=00:23:57.97 bitrate=N/A speed=19.2x    [Parsed_psnr_10 @ 000002c6f0b34180] PSNR y:48.078280 u:50.607592 v:51.136425 average:48.824230 min:31.158646 max:inf
[out#0/null @ 000002c6ea0f3e80] video:14883KiB audio:270876KiB subtitle:0KiB other streams:0KiB global headers:0KiB muxing overhead: unknown
frame=34636 fps=461 q=-0.0 Lsize=N/A time=00:24:04.60 bitrate=N/A speed=19.2x    
